REM DIRINDEX 1\4,1\2\5,1\2\6,1\2\7,1\3\8,1\3\9,1\3\10,1\3\11
REM DIRNAME folder01,folder02,folder03,folder04,folder05,folder06,folder07,folder08,folder09,folder10,folder11
TITLE ""
FILE "t_k_279-290.mp3" MP3
  TRACK 01 AUDIO
    TITLE "5:cjc108_0838"
    INDEX 01 00:00:00
  TRACK 02 AUDIO
    TITLE "0:"
    INDEX 01 00:00:64
  TRACK 03 AUDIO
    TITLE "6:cjc108_0839"
    INDEX 01 00:01:03
  TRACK 04 AUDIO
    TITLE "0:"
    INDEX 01 00:02:14
  TRACK 05 AUDIO
    TITLE "7:cjc108_0840"
    INDEX 01 00:02:40
  TRACK 06 AUDIO
    TITLE "0:"
    INDEX 01 00:05:54
  TRACK 07 AUDIO
    TITLE "5:cjc108_0841"
    INDEX 01 00:06:45
  TRACK 08 AUDIO
    TITLE "0:"
    INDEX 01 00:07:41
  TRACK 09 AUDIO
    TITLE "6:cjc108_0842"
    INDEX 01 00:08:03
  TRACK 10 AUDIO
    TITLE "0:"
    INDEX 01 00:10:57
  TRACK 11 AUDIO
    TITLE "7:cjc108_0843"
    INDEX 01 00:11:09
  TRACK 12 AUDIO
    TITLE "0:"
    INDEX 01 00:15:44
  TRACK 13 AUDIO
    TITLE "5:cjc108_0844"
    INDEX 01 00:16:34
  TRACK 14 AUDIO
    TITLE "0:"
    INDEX 01 00:17:37
  TRACK 15 AUDIO
    TITLE "6:cjc108_0845"
    INDEX 01 00:17:61
  TRACK 16 AUDIO
    TITLE "0:"
    INDEX 01 00:21:25
  TRACK 17 AUDIO
    TITLE "7:cjc108_0846"
    INDEX 01 00:21:47
  TRACK 18 AUDIO
    TITLE "0:"
    INDEX 01 00:26:18
  TRACK 19 AUDIO
    TITLE "5:cjc108_0847"
    INDEX 01 00:27:00
  TRACK 20 AUDIO
    TITLE "0:"
    INDEX 01 00:28:04
  TRACK 21 AUDIO
    TITLE "6:cjc108_0848"
    INDEX 01 00:28:15
  TRACK 22 AUDIO
    TITLE "0:"
    INDEX 01 00:29:03
  TRACK 23 AUDIO
    TITLE "7:cjc108_0849"
    INDEX 01 00:29:21
  TRACK 24 AUDIO
    TITLE "0:"
    INDEX 01 00:34:04
  TRACK 25 AUDIO
    TITLE "5:cjc108_0850"
    INDEX 01 00:34:57
  TRACK 26 AUDIO
    TITLE "0:"
    INDEX 01 00:35:53
  TRACK 27 AUDIO
    TITLE "6:cjc108_0851"
    INDEX 01 00:35:70
  TRACK 28 AUDIO
    TITLE "0:"
    INDEX 01 00:38:10
  TRACK 29 AUDIO
    TITLE "7:cjc108_0852"
    INDEX 01 00:38:28
  TRACK 30 AUDIO
    TITLE "0:"
    INDEX 01 00:41:55
  TRACK 31 AUDIO
    TITLE "5:cjc108_0853"
    INDEX 01 00:42:43
  TRACK 32 AUDIO
    TITLE "0:"
    INDEX 01 00:43:33
  TRACK 33 AUDIO
    TITLE "6:cjc108_0854"
    INDEX 01 00:43:60
  TRACK 34 AUDIO
    TITLE "0:"
    INDEX 01 00:46:11
  TRACK 35 AUDIO
    TITLE "7:cjc108_0855"
    INDEX 01 00:46:31
  TRACK 36 AUDIO
    TITLE "0:"
    INDEX 01 00:50:58
  TRACK 37 AUDIO
    TITLE "5:cjc108_0856"
    INDEX 01 00:51:50
  TRACK 38 AUDIO
    TITLE "0:"
    INDEX 01 00:52:71
  TRACK 39 AUDIO
    TITLE "6:cjc108_0857"
    INDEX 01 00:53:19
  TRACK 40 AUDIO
    TITLE "0:"
    INDEX 01 00:54:27
  TRACK 41 AUDIO
    TITLE "7:cjc108_0858"
    INDEX 01 00:54:46
  TRACK 42 AUDIO
    TITLE "0:"
    INDEX 01 00:59:04
  TRACK 43 AUDIO
    TITLE "5:cjc108_0859"
    INDEX 01 00:59:69
  TRACK 44 AUDIO
    TITLE "0:"
    INDEX 01 01:00:70
  TRACK 45 AUDIO
    TITLE "6:cjc108_0860"
    INDEX 01 01:01:21
  TRACK 46 AUDIO
    TITLE "0:"
    INDEX 01 01:02:26
  TRACK 47 AUDIO
    TITLE "7:cjc108_0861"
    INDEX 01 01:02:52
  TRACK 48 AUDIO
    TITLE "0:"
    INDEX 01 01:08:40
  TRACK 49 AUDIO
    TITLE "5:cjc108_0862"
    INDEX 01 01:09:32
  TRACK 50 AUDIO
    TITLE "0:"
    INDEX 01 01:10:24
  TRACK 51 AUDIO
    TITLE "6:cjc108_0863"
    INDEX 01 01:10:47
  TRACK 52 AUDIO
    TITLE "0:"
    INDEX 01 01:12:50
  TRACK 53 AUDIO
    TITLE "7:cjc108_0864"
    INDEX 01 01:13:02
  TRACK 54 AUDIO
    TITLE "0:"
    INDEX 01 01:16:05
  TRACK 55 AUDIO
    TITLE "5:cjc108_0865"
    INDEX 01 01:16:63
  TRACK 56 AUDIO
    TITLE "0:"
    INDEX 01 01:17:61
  TRACK 57 AUDIO
    TITLE "6:cjc108_0866"
    INDEX 01 01:18:04
  TRACK 58 AUDIO
    TITLE "0:"
    INDEX 01 01:19:70
  TRACK 59 AUDIO
    TITLE "7:cjc108_0867"
    INDEX 01 01:20:16
  TRACK 60 AUDIO
    TITLE "0:"
    INDEX 01 01:27:51
  TRACK 61 AUDIO
    TITLE "5:cjc108_0868"
    INDEX 01 01:28:31
  TRACK 62 AUDIO
    TITLE "0:"
    INDEX 01 01:29:39
  TRACK 63 AUDIO
    TITLE "6:cjc108_0869"
    INDEX 01 01:29:64
  TRACK 64 AUDIO
    TITLE "0:"
    INDEX 01 01:32:04
  TRACK 65 AUDIO
    TITLE "7:cjc108_0870"
    INDEX 01 01:32:33
  TRACK 66 AUDIO
    TITLE "0:"
    INDEX 01 01:37:34
  TRACK 67 AUDIO
    TITLE "5:cjc108_0871"
    INDEX 01 01:38:28
  TRACK 68 AUDIO
    TITLE "0:"
    INDEX 01 01:39:31
  TRACK 69 AUDIO
    TITLE "6:cjc108_0872"
    INDEX 01 01:39:47
  TRACK 70 AUDIO
    TITLE "0:"
    INDEX 01 01:41:63
  TRACK 71 AUDIO
    TITLE "7:cjc108_0873"
    INDEX 01 01:42:04
  TRACK 72 AUDIO
    TITLE "0:"
    INDEX 01 01:47:58
